<svg xmlns="http://www.w3.org/2000/svg" viewBox="0 0 512 512">
  <rect width="512" height="512" rx="96" fill="#246b55"/>
  <path d="M112 146c0-22 18-40 40-40h208c22 0 40 18 40 40v220c0 22-18 40-40 40H152c-22 0-40-18-40-40V146z" fill="#f5f7f4"/>
  <path d="M160 174h192v34H160v-34zm0 70h192v28H160v-28zm0 58h120v28H160v-28z" fill="#246b55"/>
  <circle cx="346" cy="318" r="38" fill="#b7791f"/>
  <path d="M328 318l14 14 28-36" fill="none" stroke="#fff" stroke-width="18" stroke-linecap="round" stroke-linejoin="round"/>
</svg>
